<svg width="600" height="350" xmlns="http://www.w3.org/2000/svg">
  <rect width="600" height="350" fill="#f8fafc"/>
  <rect x="30" y="40" width="180" height="70" fill="#c7d2fe" stroke="#6366f1" stroke-width="2" rx="10"/>
  <text x="120" y="80" font-size="16" text-anchor="middle" fill="#1e293b">AWS EKS Cluster</text>
  <rect x="260" y="40" width="180" height="70" fill="#a7f3d0" stroke="#059669" stroke-width="2" rx="10"/>
  <text x="350" y="80" font-size="16" text-anchor="middle" fill="#064e3b">Kubernetes Nodes</text>
  <rect x="30" y="170" width="180" height="70" fill="#fef3c7" stroke="#f59e42" stroke-width="2" rx="10"/>
  <text x="120" y="210" font-size="16" text-anchor="middle" fill="#92400e">Tailscale Operator</text>
  <rect x="260" y="170" width="180" height="70" fill="#fca5a5" stroke="#dc2626" stroke-width="2" rx="10"/>
  <text x="350" y="210" font-size="16" text-anchor="middle" fill="#7f1d1d">API Server Proxy</text>
  <rect x="470" y="170" width="100" height="70" fill="#f9fafb" stroke="#6b7280" stroke-width="2" rx="10"/>
  <text x="520" y="210" font-size="14" text-anchor="middle" fill="#374151">Subnet Router</text>
  <rect x="470" y="40" width="100" height="70" fill="#f1f5f9" stroke="#0ea5e9" stroke-width="2" rx="10"/>
  <text x="520" y="80" font-size="14" text-anchor="middle" fill="#0369a1">Tailnet</text>
  <line x1="120" y1="110" x2="120" y2="170" stroke="#6366f1" stroke-width="2" marker-end="url(#arrow)"/>
  <line x1="350" y1="110" x2="350" y2="170" stroke="#059669" stroke-width="2" marker-end="url(#arrow)"/>
  <line x1="350" y1="240" x2="520" y2="240" stroke="#dc2626" stroke-width="2" marker-end="url(#arrow)"/>
  <line x1="520" y1="110" x2="520" y2="170" stroke="#0ea5e9" stroke-width="2" marker-end="url(#arrow)"/>
  <defs>
    <marker id="arrow" markerWidth="10" markerHeight="10" refX="5" refY="5" orient="auto" markerUnits="strokeWidth">
      <path d="M0,0 L10,5 L0,10 L2,5 z" fill="#6366f1" />
    </marker>
  </defs>
</svg>
